<svg width="297" height="84" viewBox="0 0 297 84" fill="none" xmlns="http://www.w3.org/2000/svg">
<g filter="url(#filter0_d_19_11)">
<path d="M36.1243 32.8618C33.8115 23.6223 39.4267 14.2573 48.6662 11.9445L75.8873 5.13061C78.2001 14.3701 72.5849 23.7351 63.3454 26.0479L36.1243 32.8618Z" fill="#FEDF08"/>
<path d="M34.9934 43.9923C25.7539 46.3052 16.3889 40.69 14.0761 31.4505L7.2622 4.22943C16.5017 1.91663 25.8667 7.53182 28.1795 16.7713L34.9934 43.9923Z" fill="#7CDD01"/>
<path d="M74.1358 75.1739C64.8963 77.4867 55.5314 71.8715 53.2185 62.632L46.4047 35.411C55.6442 33.0981 65.0091 38.7133 67.3219 47.9528L74.1358 75.1739Z" fill="#1CA0E9"/>
<path d="M5.22725 74.3436C2.91445 65.1041 8.52964 55.7391 17.7691 53.4263L44.9902 46.6124C47.303 55.8519 41.6878 65.2169 32.4483 67.5297L5.22725 74.3436Z" fill="#FC0D0E"/>
</g>
<g filter="url(#filter1_d_19_11)">
<path d="M103.523 64L90.2045 17.4545H100.955L108.659 49.7955H109.045L117.545 17.4545H126.75L135.227 49.8636H135.636L143.341 17.4545H154.091L140.773 64H131.182L122.318 33.5682H121.955L113.114 64H103.523ZM171.839 64.6818C168.309 64.6818 165.256 63.9318 162.68 62.4318C160.119 60.9167 158.142 58.8106 156.748 56.1136C155.354 53.4015 154.657 50.2576 154.657 46.6818C154.657 43.0758 155.354 39.9242 156.748 37.2273C158.142 34.5152 160.119 32.4091 162.68 30.9091C165.256 29.3939 168.309 28.6364 171.839 28.6364C175.369 28.6364 178.415 29.3939 180.975 30.9091C183.551 32.4091 185.536 34.5152 186.93 37.2273C188.324 39.9242 189.021 43.0758 189.021 46.6818C189.021 50.2576 188.324 53.4015 186.93 56.1136C185.536 58.8106 183.551 60.9167 180.975 62.4318C178.415 63.9318 175.369 64.6818 171.839 64.6818ZM171.884 57.1818C173.49 57.1818 174.831 56.7273 175.907 55.8182C176.983 54.8939 177.793 53.6364 178.339 52.0455C178.899 50.4545 179.18 48.6439 179.18 46.6136C179.18 44.5833 178.899 42.7727 178.339 41.1818C177.793 39.5909 176.983 38.3333 175.907 37.4091C174.831 36.4848 173.49 36.0227 171.884 36.0227C170.263 36.0227 168.899 36.4848 167.793 37.4091C166.703 38.3333 165.877 39.5909 165.316 41.1818C164.771 42.7727 164.498 44.5833 164.498 46.6136C164.498 48.6439 164.771 50.4545 165.316 52.0455C165.877 53.6364 166.703 54.8939 167.793 55.8182C168.899 56.7273 170.263 57.1818 171.884 57.1818ZM195.956 64V29.0909H205.342V35.1818H205.706C206.342 33.0152 207.411 31.3788 208.911 30.2727C210.411 29.1515 212.138 28.5909 214.092 28.5909C214.577 28.5909 215.1 28.6212 215.661 28.6818C216.221 28.7424 216.714 28.8258 217.138 28.9318V37.5227C216.683 37.3864 216.055 37.2652 215.252 37.1591C214.449 37.053 213.714 37 213.047 37C211.623 37 210.35 37.3106 209.229 37.9318C208.123 38.5379 207.244 39.3864 206.592 40.4773C205.956 41.5682 205.638 42.8258 205.638 44.25V64H195.956ZM231.556 53.9545L231.579 42.3409H232.988L244.17 29.0909H255.284L240.261 46.6364H237.965L231.556 53.9545ZM222.784 64V17.4545H232.465V64H222.784ZM244.602 64L234.329 48.7955L240.784 41.9545L255.943 64H244.602ZM275.009 64.6818C271.479 64.6818 268.426 63.9318 265.85 62.4318C263.289 60.9167 261.312 58.8106 259.918 56.1136C258.524 53.4015 257.827 50.2576 257.827 46.6818C257.827 43.0758 258.524 39.9242 259.918 37.2273C261.312 34.5152 263.289 32.4091 265.85 30.9091C268.426 29.3939 271.479 28.6364 275.009 28.6364C278.539 28.6364 281.585 29.3939 284.145 30.9091C286.721 32.4091 288.706 34.5152 290.1 37.2273C291.494 39.9242 292.191 43.0758 292.191 46.6818C292.191 50.2576 291.494 53.4015 290.1 56.1136C288.706 58.8106 286.721 60.9167 284.145 62.4318C281.585 63.9318 278.539 64.6818 275.009 64.6818ZM275.054 57.1818C276.66 57.1818 278.001 56.7273 279.077 55.8182C280.153 54.8939 280.963 53.6364 281.509 52.0455C282.069 50.4545 282.35 48.6439 282.35 46.6136C282.35 44.5833 282.069 42.7727 281.509 41.1818C280.963 39.5909 280.153 38.3333 279.077 37.4091C278.001 36.4848 276.66 36.0227 275.054 36.0227C273.433 36.0227 272.069 36.4848 270.963 37.4091C269.872 38.3333 269.047 39.5909 268.486 41.1818C267.941 42.7727 267.668 44.5833 267.668 46.6136C267.668 48.6439 267.941 50.4545 268.486 52.0455C269.047 53.6364 269.872 54.8939 270.963 55.8182C272.069 56.7273 273.433 57.1818 275.054 57.1818Z" fill="white"/>
</g>
<defs>
<filter id="filter0_d_19_11" x="0.707031" y="3.70923" width="79.7004" height="79.9849" filterUnits="userSpaceOnUse" color-interpolation-filters="sRGB">
<feFlood flood-opacity="0" result="BackgroundImageFix"/>
<feColorMatrix in="SourceAlpha" type="matrix" values="0 0 0 0 0 0 0 0 0 0 0 0 0 0 0 0 0 0 127 0" result="hardAlpha"/>
<feOffset dy="4"/>
<feGaussianBlur stdDeviation="2"/>
<feComposite in2="hardAlpha" operator="out"/>
<feColorMatrix type="matrix" values="0 0 0 0 0 0 0 0 0 0 0 0 0 0 0 0 0 0 0.25 0"/>
<feBlend mode="normal" in2="BackgroundImageFix" result="effect1_dropShadow_19_11"/>
<feBlend mode="normal" in="SourceGraphic" in2="effect1_dropShadow_19_11" result="shape"/>
</filter>
<filter id="filter1_d_19_11" x="86.2046" y="17.4546" width="209.986" height="55.2272" filterUnits="userSpaceOnUse" color-interpolation-filters="sRGB">
<feFlood flood-opacity="0" result="BackgroundImageFix"/>
<feColorMatrix in="SourceAlpha" type="matrix" values="0 0 0 0 0 0 0 0 0 0 0 0 0 0 0 0 0 0 127 0" result="hardAlpha"/>
<feOffset dy="4"/>
<feGaussianBlur stdDeviation="2"/>
<feComposite in2="hardAlpha" operator="out"/>
<feColorMatrix type="matrix" values="0 0 0 0 0 0 0 0 0 0 0 0 0 0 0 0 0 0 0.25 0"/>
<feBlend mode="normal" in2="BackgroundImageFix" result="effect1_dropShadow_19_11"/>
<feBlend mode="normal" in="SourceGraphic" in2="effect1_dropShadow_19_11" result="shape"/>
</filter>
</defs>
</svg>
